<mxfile host="Electron" agent="Mozilla/5.0 (Windows NT 10.0; Win64; x64) AppleWebKit/537.36 (KHTML, like Gecko) draw.io/28.1.2 Chrome/138.0.7204.243 Electron/37.4.0 Safari/537.36" version="28.1.2">
  <diagram name="Page-1" id="c7488fd3-1785-93aa-aadb-54a6760d102a">
    <mxGraphModel dx="1042" dy="1476" grid="1" gridSize="10" guides="1" tooltips="1" connect="1" arrows="1" fold="1" page="1" pageScale="1" pageWidth="1100" pageHeight="850" background="none" math="0" shadow="0">
      <root>
        <mxCell id="0" />
        <mxCell id="1" parent="0" />
        <mxCell id="2b4e8129b02d487f-1" value="ACME Performer" style="swimlane;html=1;childLayout=stackLayout;horizontal=1;startSize=20;horizontalStack=0;rounded=0;shadow=0;labelBackgroundColor=none;strokeWidth=1;fontFamily=Verdana;fontSize=8;align=center;fillColor=#f5f5f5;fontColor=#333333;strokeColor=#666666;" parent="1" vertex="1">
          <mxGeometry x="180" y="60" width="1140" height="1460" as="geometry">
            <mxRectangle x="180" y="70" width="60" height="20" as="alternateBounds" />
          </mxGeometry>
        </mxCell>
        <mxCell id="2b4e8129b02d487f-2" value="Initialize Apps" style="swimlane;html=1;startSize=20;horizontal=0;fillColor=#dae8fc;strokeColor=#6c8ebf;" parent="2b4e8129b02d487f-1" vertex="1">
          <mxGeometry y="20" width="1140" height="150" as="geometry" />
        </mxCell>
        <mxCell id="2b4e8129b02d487f-18" style="edgeStyle=orthogonalEdgeStyle;rounded=0;html=1;labelBackgroundColor=none;startArrow=none;startFill=0;startSize=5;endArrow=classicThin;endFill=1;endSize=5;jettySize=auto;orthogonalLoop=1;strokeWidth=1;fontFamily=Verdana;fontSize=8" parent="2b4e8129b02d487f-2" source="2b4e8129b02d487f-5" target="2b4e8129b02d487f-6" edge="1">
          <mxGeometry relative="1" as="geometry" />
        </mxCell>
        <mxCell id="2b4e8129b02d487f-5" value="Start" style="ellipse;whiteSpace=wrap;html=1;rounded=0;shadow=0;labelBackgroundColor=none;strokeWidth=1;fontFamily=Verdana;fontSize=8;align=center;fillColor=#dae8fc;strokeColor=#6c8ebf;fontStyle=1" parent="2b4e8129b02d487f-2" vertex="1">
          <mxGeometry x="30" y="10" width="50" height="50" as="geometry" />
        </mxCell>
        <mxCell id="lynWyJ27UmlPL52xSpIG-3" style="edgeStyle=orthogonalEdgeStyle;rounded=0;orthogonalLoop=1;jettySize=auto;html=1;exitX=1;exitY=0.5;exitDx=0;exitDy=0;entryX=0;entryY=0.5;entryDx=0;entryDy=0;" parent="2b4e8129b02d487f-2" source="2b4e8129b02d487f-6" target="lynWyJ27UmlPL52xSpIG-2" edge="1">
          <mxGeometry relative="1" as="geometry" />
        </mxCell>
        <mxCell id="2b4e8129b02d487f-6" value="Launch ACME System 1" style="rounded=1;whiteSpace=wrap;html=1;shadow=0;labelBackgroundColor=none;strokeWidth=1;fontFamily=Verdana;fontSize=8;align=center;fillColor=#dae8fc;strokeColor=#6c8ebf;fontStyle=1" parent="2b4e8129b02d487f-2" vertex="1">
          <mxGeometry x="100" y="16.49999999999997" width="70" height="37" as="geometry" />
        </mxCell>
        <mxCell id="lynWyJ27UmlPL52xSpIG-4" value="NO" style="edgeStyle=orthogonalEdgeStyle;rounded=0;orthogonalLoop=1;jettySize=auto;html=1;exitX=0.5;exitY=1;exitDx=0;exitDy=0;entryX=0.5;entryY=0;entryDx=0;entryDy=0;fontStyle=1" parent="2b4e8129b02d487f-2" source="lynWyJ27UmlPL52xSpIG-2" target="lynWyJ27UmlPL52xSpIG-1" edge="1">
          <mxGeometry relative="1" as="geometry" />
        </mxCell>
        <mxCell id="lynWyJ27UmlPL52xSpIG-6" value="Yes" style="edgeStyle=orthogonalEdgeStyle;rounded=0;orthogonalLoop=1;jettySize=auto;html=1;exitX=1;exitY=0.5;exitDx=0;exitDy=0;entryX=0;entryY=0.5;entryDx=0;entryDy=0;fontStyle=1" parent="2b4e8129b02d487f-2" source="lynWyJ27UmlPL52xSpIG-2" target="lynWyJ27UmlPL52xSpIG-5" edge="1">
          <mxGeometry relative="1" as="geometry" />
        </mxCell>
        <mxCell id="lynWyJ27UmlPL52xSpIG-2" value="App&amp;nbsp;&lt;div&gt;Launched&amp;nbsp;&lt;/div&gt;&lt;div&gt;Success&lt;/div&gt;" style="rhombus;whiteSpace=wrap;html=1;fillColor=#e1d5e7;strokeColor=#9673a6;fontSize=7;fontStyle=1" parent="2b4e8129b02d487f-2" vertex="1">
          <mxGeometry x="190" y="5" width="60" height="60" as="geometry" />
        </mxCell>
        <mxCell id="lynWyJ27UmlPL52xSpIG-1" value="SE01" style="ellipse;whiteSpace=wrap;html=1;fontStyle=1;fillColor=#e51400;fontColor=#ffffff;strokeColor=#B20000;" parent="2b4e8129b02d487f-2" vertex="1">
          <mxGeometry x="195" y="110" width="50" height="30" as="geometry" />
        </mxCell>
        <mxCell id="lynWyJ27UmlPL52xSpIG-8" style="edgeStyle=orthogonalEdgeStyle;rounded=0;orthogonalLoop=1;jettySize=auto;html=1;exitX=1;exitY=0.5;exitDx=0;exitDy=0;entryX=0;entryY=0.5;entryDx=0;entryDy=0;" parent="2b4e8129b02d487f-2" source="lynWyJ27UmlPL52xSpIG-5" target="lynWyJ27UmlPL52xSpIG-7" edge="1">
          <mxGeometry relative="1" as="geometry" />
        </mxCell>
        <mxCell id="lynWyJ27UmlPL52xSpIG-5" value="Login ACME system 1" style="rounded=1;whiteSpace=wrap;html=1;shadow=0;labelBackgroundColor=none;strokeWidth=1;fontFamily=Verdana;fontSize=8;align=center;fillColor=#dae8fc;strokeColor=#6c8ebf;fontStyle=1" parent="2b4e8129b02d487f-2" vertex="1">
          <mxGeometry x="300" y="16.5" width="70" height="37" as="geometry" />
        </mxCell>
        <mxCell id="lynWyJ27UmlPL52xSpIG-11" value="No" style="edgeStyle=orthogonalEdgeStyle;rounded=0;orthogonalLoop=1;jettySize=auto;html=1;exitX=0.5;exitY=1;exitDx=0;exitDy=0;fontStyle=1" parent="2b4e8129b02d487f-2" source="lynWyJ27UmlPL52xSpIG-7" target="lynWyJ27UmlPL52xSpIG-9" edge="1">
          <mxGeometry relative="1" as="geometry" />
        </mxCell>
        <mxCell id="lynWyJ27UmlPL52xSpIG-13" value="Yes" style="edgeStyle=orthogonalEdgeStyle;rounded=0;orthogonalLoop=1;jettySize=auto;html=1;exitX=1;exitY=0.5;exitDx=0;exitDy=0;entryX=0;entryY=0.5;entryDx=0;entryDy=0;fontStyle=1" parent="2b4e8129b02d487f-2" source="lynWyJ27UmlPL52xSpIG-7" target="lynWyJ27UmlPL52xSpIG-12" edge="1">
          <mxGeometry relative="1" as="geometry" />
        </mxCell>
        <mxCell id="lynWyJ27UmlPL52xSpIG-7" value="Login&amp;nbsp;&lt;div&gt;Success&lt;/div&gt;" style="rhombus;whiteSpace=wrap;html=1;fillColor=#e1d5e7;strokeColor=#9673a6;fontSize=7;fontStyle=1" parent="2b4e8129b02d487f-2" vertex="1">
          <mxGeometry x="400" y="5" width="60" height="60" as="geometry" />
        </mxCell>
        <mxCell id="lynWyJ27UmlPL52xSpIG-9" value="BE01" style="ellipse;whiteSpace=wrap;html=1;fontStyle=1;fillColor=#e51400;fontColor=#ffffff;strokeColor=#B20000;" parent="2b4e8129b02d487f-2" vertex="1">
          <mxGeometry x="405" y="110" width="50" height="30" as="geometry" />
        </mxCell>
        <mxCell id="lynWyJ27UmlPL52xSpIG-15" style="edgeStyle=orthogonalEdgeStyle;rounded=0;orthogonalLoop=1;jettySize=auto;html=1;exitX=1;exitY=0.5;exitDx=0;exitDy=0;entryX=0;entryY=0.5;entryDx=0;entryDy=0;" parent="2b4e8129b02d487f-2" source="lynWyJ27UmlPL52xSpIG-12" target="lynWyJ27UmlPL52xSpIG-14" edge="1">
          <mxGeometry relative="1" as="geometry" />
        </mxCell>
        <mxCell id="lynWyJ27UmlPL52xSpIG-12" value="Lanch ACME System 3" style="rounded=1;whiteSpace=wrap;html=1;shadow=0;labelBackgroundColor=none;strokeWidth=1;fontFamily=Verdana;fontSize=8;align=center;fillColor=#dae8fc;strokeColor=#6c8ebf;fontStyle=1" parent="2b4e8129b02d487f-2" vertex="1">
          <mxGeometry x="520" y="16.5" width="70" height="37" as="geometry" />
        </mxCell>
        <mxCell id="lynWyJ27UmlPL52xSpIG-17" value="No" style="edgeStyle=orthogonalEdgeStyle;rounded=0;orthogonalLoop=1;jettySize=auto;html=1;exitX=0.5;exitY=1;exitDx=0;exitDy=0;fontStyle=1" parent="2b4e8129b02d487f-2" source="lynWyJ27UmlPL52xSpIG-14" target="lynWyJ27UmlPL52xSpIG-16" edge="1">
          <mxGeometry relative="1" as="geometry" />
        </mxCell>
        <mxCell id="lynWyJ27UmlPL52xSpIG-20" value="Yes" style="edgeStyle=orthogonalEdgeStyle;rounded=0;orthogonalLoop=1;jettySize=auto;html=1;exitX=1;exitY=0.5;exitDx=0;exitDy=0;entryX=0;entryY=0.5;entryDx=0;entryDy=0;fontStyle=1" parent="2b4e8129b02d487f-2" source="lynWyJ27UmlPL52xSpIG-14" target="lynWyJ27UmlPL52xSpIG-19" edge="1">
          <mxGeometry relative="1" as="geometry" />
        </mxCell>
        <mxCell id="lynWyJ27UmlPL52xSpIG-14" value="App&amp;nbsp;&lt;div&gt;Launched&amp;nbsp;&lt;/div&gt;&lt;div&gt;Success&lt;/div&gt;" style="rhombus;whiteSpace=wrap;html=1;fillColor=#e1d5e7;strokeColor=#9673a6;fontSize=7;fontStyle=1" parent="2b4e8129b02d487f-2" vertex="1">
          <mxGeometry x="640" y="5" width="60" height="60" as="geometry" />
        </mxCell>
        <mxCell id="lynWyJ27UmlPL52xSpIG-16" value="SE01" style="ellipse;whiteSpace=wrap;html=1;fontStyle=1;fillColor=#e51400;fontColor=#ffffff;strokeColor=#B20000;" parent="2b4e8129b02d487f-2" vertex="1">
          <mxGeometry x="645" y="110" width="50" height="30" as="geometry" />
        </mxCell>
        <mxCell id="lynWyJ27UmlPL52xSpIG-22" style="edgeStyle=orthogonalEdgeStyle;rounded=0;orthogonalLoop=1;jettySize=auto;html=1;exitX=1;exitY=0.5;exitDx=0;exitDy=0;entryX=0;entryY=0.5;entryDx=0;entryDy=0;" parent="2b4e8129b02d487f-2" source="lynWyJ27UmlPL52xSpIG-19" target="lynWyJ27UmlPL52xSpIG-21" edge="1">
          <mxGeometry relative="1" as="geometry" />
        </mxCell>
        <mxCell id="lynWyJ27UmlPL52xSpIG-19" value="Login ACME system 3" style="rounded=1;whiteSpace=wrap;html=1;shadow=0;labelBackgroundColor=none;strokeWidth=1;fontFamily=Verdana;fontSize=8;align=center;fillColor=#dae8fc;strokeColor=#6c8ebf;fontStyle=1" parent="2b4e8129b02d487f-2" vertex="1">
          <mxGeometry x="810" y="16.5" width="70" height="37" as="geometry" />
        </mxCell>
        <mxCell id="lynWyJ27UmlPL52xSpIG-24" value="No" style="edgeStyle=orthogonalEdgeStyle;rounded=0;orthogonalLoop=1;jettySize=auto;html=1;exitX=0.5;exitY=1;exitDx=0;exitDy=0;entryX=0.5;entryY=0;entryDx=0;entryDy=0;fontStyle=1" parent="2b4e8129b02d487f-2" source="lynWyJ27UmlPL52xSpIG-21" target="lynWyJ27UmlPL52xSpIG-23" edge="1">
          <mxGeometry relative="1" as="geometry" />
        </mxCell>
        <mxCell id="lynWyJ27UmlPL52xSpIG-26" value="Yes" style="edgeStyle=orthogonalEdgeStyle;rounded=0;orthogonalLoop=1;jettySize=auto;html=1;exitX=1;exitY=0.5;exitDx=0;exitDy=0;entryX=0;entryY=0.5;entryDx=0;entryDy=0;fontStyle=1" parent="2b4e8129b02d487f-2" source="lynWyJ27UmlPL52xSpIG-21" target="lynWyJ27UmlPL52xSpIG-25" edge="1">
          <mxGeometry relative="1" as="geometry" />
        </mxCell>
        <mxCell id="lynWyJ27UmlPL52xSpIG-21" value="Login&amp;nbsp;&lt;div&gt;Success&lt;/div&gt;" style="rhombus;whiteSpace=wrap;html=1;fillColor=#e1d5e7;strokeColor=#9673a6;fontSize=7;fontStyle=1" parent="2b4e8129b02d487f-2" vertex="1">
          <mxGeometry x="920" y="5" width="60" height="60" as="geometry" />
        </mxCell>
        <mxCell id="lynWyJ27UmlPL52xSpIG-23" value="BE01" style="ellipse;whiteSpace=wrap;html=1;fontStyle=1;fillColor=#e51400;fontColor=#ffffff;strokeColor=#B20000;" parent="2b4e8129b02d487f-2" vertex="1">
          <mxGeometry x="925" y="110" width="50" height="30" as="geometry" />
        </mxCell>
        <mxCell id="lynWyJ27UmlPL52xSpIG-25" value="Extract Data" style="ellipse;whiteSpace=wrap;html=1;rounded=0;shadow=0;labelBackgroundColor=none;strokeWidth=1;fontFamily=Verdana;fontSize=8;align=center;fillColor=#d5e8d4;strokeColor=#82b366;fontStyle=1" parent="2b4e8129b02d487f-2" vertex="1">
          <mxGeometry x="1050" y="10" width="50" height="50" as="geometry" />
        </mxCell>
        <mxCell id="2b4e8129b02d487f-3" value="Get Queue Item" style="swimlane;html=1;startSize=20;horizontal=0;fillColor=#d5e8d4;strokeColor=#82b366;" parent="2b4e8129b02d487f-1" vertex="1">
          <mxGeometry y="170" width="1140" height="200" as="geometry" />
        </mxCell>
        <mxCell id="lynWyJ27UmlPL52xSpIG-29" style="edgeStyle=orthogonalEdgeStyle;rounded=0;orthogonalLoop=1;jettySize=auto;html=1;exitX=1;exitY=0.5;exitDx=0;exitDy=0;entryX=0;entryY=0.5;entryDx=0;entryDy=0;" parent="2b4e8129b02d487f-3" source="lynWyJ27UmlPL52xSpIG-27" target="lynWyJ27UmlPL52xSpIG-28" edge="1">
          <mxGeometry relative="1" as="geometry" />
        </mxCell>
        <mxCell id="lynWyJ27UmlPL52xSpIG-27" value="Initialize Apps" style="ellipse;whiteSpace=wrap;html=1;rounded=0;shadow=0;labelBackgroundColor=none;strokeWidth=1;fontFamily=Verdana;fontSize=8;align=center;fillColor=#dae8fc;strokeColor=#6c8ebf;fontStyle=1" parent="2b4e8129b02d487f-3" vertex="1">
          <mxGeometry x="30" y="20" width="50" height="50" as="geometry" />
        </mxCell>
        <mxCell id="lynWyJ27UmlPL52xSpIG-32" style="edgeStyle=orthogonalEdgeStyle;rounded=0;orthogonalLoop=1;jettySize=auto;html=1;exitX=1;exitY=0.5;exitDx=0;exitDy=0;entryX=0;entryY=0.5;entryDx=0;entryDy=0;" parent="2b4e8129b02d487f-3" source="lynWyJ27UmlPL52xSpIG-28" target="lynWyJ27UmlPL52xSpIG-31" edge="1">
          <mxGeometry relative="1" as="geometry" />
        </mxCell>
        <mxCell id="lynWyJ27UmlPL52xSpIG-28" value="Get Queue Item WI1" style="rounded=1;whiteSpace=wrap;html=1;shadow=0;labelBackgroundColor=none;strokeWidth=1;fontFamily=Verdana;fontSize=8;align=center;fillColor=#d5e8d4;strokeColor=#82b366;fontStyle=1" parent="2b4e8129b02d487f-3" vertex="1">
          <mxGeometry x="120" y="26.5" width="70" height="37" as="geometry" />
        </mxCell>
        <mxCell id="lynWyJ27UmlPL52xSpIG-34" value="No" style="edgeStyle=orthogonalEdgeStyle;rounded=0;orthogonalLoop=1;jettySize=auto;html=1;exitX=0.5;exitY=1;exitDx=0;exitDy=0;entryX=0.5;entryY=0;entryDx=0;entryDy=0;fontStyle=1" parent="2b4e8129b02d487f-3" source="lynWyJ27UmlPL52xSpIG-31" target="lynWyJ27UmlPL52xSpIG-33" edge="1">
          <mxGeometry relative="1" as="geometry" />
        </mxCell>
        <mxCell id="lynWyJ27UmlPL52xSpIG-36" value="Yes" style="edgeStyle=orthogonalEdgeStyle;rounded=0;orthogonalLoop=1;jettySize=auto;html=1;exitX=1;exitY=0.5;exitDx=0;exitDy=0;entryX=0;entryY=0.5;entryDx=0;entryDy=0;fontStyle=1" parent="2b4e8129b02d487f-3" source="lynWyJ27UmlPL52xSpIG-31" edge="1">
          <mxGeometry relative="1" as="geometry">
            <mxPoint x="350" y="45" as="targetPoint" />
          </mxGeometry>
        </mxCell>
        <mxCell id="lynWyJ27UmlPL52xSpIG-31" value="Item&amp;nbsp;&lt;div&gt;Existed ?&lt;/div&gt;" style="rhombus;whiteSpace=wrap;html=1;fillColor=#e1d5e7;strokeColor=#9673a6;fontSize=7;fontStyle=1" parent="2b4e8129b02d487f-3" vertex="1">
          <mxGeometry x="230" y="15" width="60" height="60" as="geometry" />
        </mxCell>
        <mxCell id="lynWyJ27UmlPL52xSpIG-33" value="End Process" style="ellipse;whiteSpace=wrap;html=1;fontStyle=1;fillColor=#f8cecc;strokeColor=#b85450;" parent="2b4e8129b02d487f-3" vertex="1">
          <mxGeometry x="227.5" y="130" width="62.5" height="50" as="geometry" />
        </mxCell>
        <mxCell id="H9uLp7tHIZIzgpHieKHO-5" value="Extract Account&amp;nbsp;&lt;div&gt;Data&amp;nbsp;&lt;/div&gt;" style="ellipse;whiteSpace=wrap;html=1;fontStyle=1;fillColor=#ffe6cc;strokeColor=#d79b00;" parent="2b4e8129b02d487f-3" vertex="1">
          <mxGeometry x="350" y="15" width="80" height="85" as="geometry" />
        </mxCell>
        <mxCell id="H9uLp7tHIZIzgpHieKHO-126" style="edgeStyle=orthogonalEdgeStyle;rounded=0;orthogonalLoop=1;jettySize=auto;html=1;exitX=1;exitY=0.5;exitDx=0;exitDy=0;entryX=0.5;entryY=1;entryDx=0;entryDy=0;" parent="2b4e8129b02d487f-3" source="H9uLp7tHIZIzgpHieKHO-125" target="lynWyJ27UmlPL52xSpIG-28" edge="1">
          <mxGeometry relative="1" as="geometry" />
        </mxCell>
        <mxCell id="H9uLp7tHIZIzgpHieKHO-125" value="Update Work Item" style="ellipse;whiteSpace=wrap;html=1;rounded=0;shadow=0;labelBackgroundColor=none;strokeWidth=1;fontFamily=Verdana;fontSize=8;align=center;fillColor=#b0e3e6;strokeColor=#0e8088;fontStyle=1" parent="2b4e8129b02d487f-3" vertex="1">
          <mxGeometry x="30" y="90" width="50" height="50" as="geometry" />
        </mxCell>
        <mxCell id="2b4e8129b02d487f-4" value="Extract Account Data&amp;nbsp;" style="swimlane;html=1;startSize=20;horizontal=0;fillColor=#ffe6cc;strokeColor=#d79b00;" parent="2b4e8129b02d487f-1" vertex="1">
          <mxGeometry y="370" width="1140" height="150" as="geometry" />
        </mxCell>
        <mxCell id="lynWyJ27UmlPL52xSpIG-43" style="edgeStyle=orthogonalEdgeStyle;rounded=0;orthogonalLoop=1;jettySize=auto;html=1;exitX=1;exitY=0.5;exitDx=0;exitDy=0;entryX=0;entryY=0.5;entryDx=0;entryDy=0;" parent="2b4e8129b02d487f-4" source="lynWyJ27UmlPL52xSpIG-41" target="lynWyJ27UmlPL52xSpIG-42" edge="1">
          <mxGeometry relative="1" as="geometry" />
        </mxCell>
        <mxCell id="lynWyJ27UmlPL52xSpIG-41" value="Get Queue Item" style="ellipse;whiteSpace=wrap;html=1;rounded=0;shadow=0;labelBackgroundColor=none;strokeWidth=1;fontFamily=Verdana;fontSize=8;align=center;fillColor=#d5e8d4;strokeColor=#82b366;fontStyle=1" parent="2b4e8129b02d487f-4" vertex="1">
          <mxGeometry x="40" y="45" width="60" height="60" as="geometry" />
        </mxCell>
        <mxCell id="H9uLp7tHIZIzgpHieKHO-8" style="edgeStyle=orthogonalEdgeStyle;rounded=0;orthogonalLoop=1;jettySize=auto;html=1;exitX=1;exitY=0.5;exitDx=0;exitDy=0;entryX=0;entryY=0.5;entryDx=0;entryDy=0;" parent="2b4e8129b02d487f-4" source="lynWyJ27UmlPL52xSpIG-42" target="H9uLp7tHIZIzgpHieKHO-7" edge="1">
          <mxGeometry relative="1" as="geometry" />
        </mxCell>
        <mxCell id="lynWyJ27UmlPL52xSpIG-42" value="Extract CLient Id , Account Number , Account Amount to memory" style="rounded=1;whiteSpace=wrap;html=1;shadow=0;labelBackgroundColor=none;strokeWidth=1;fontFamily=Verdana;fontSize=8;align=center;fillColor=#ffe6cc;strokeColor=#d79b00;fontStyle=1" parent="2b4e8129b02d487f-4" vertex="1">
          <mxGeometry x="150" y="47.86999999999999" width="120" height="54.25" as="geometry" />
        </mxCell>
        <mxCell id="H9uLp7tHIZIzgpHieKHO-7" value="Search Clients" style="ellipse;whiteSpace=wrap;html=1;fontStyle=1;fillColor=#b1ddf0;strokeColor=#10739e;" parent="2b4e8129b02d487f-4" vertex="1">
          <mxGeometry x="350" y="32.5" width="80" height="85" as="geometry" />
        </mxCell>
        <mxCell id="H9uLp7tHIZIzgpHieKHO-9" value="Search Clients" style="swimlane;html=1;startSize=20;horizontal=0;fillColor=#b1ddf0;strokeColor=#10739e;" parent="2b4e8129b02d487f-1" vertex="1">
          <mxGeometry y="520" width="1140" height="200" as="geometry" />
        </mxCell>
        <mxCell id="H9uLp7tHIZIzgpHieKHO-10" style="edgeStyle=orthogonalEdgeStyle;rounded=0;orthogonalLoop=1;jettySize=auto;html=1;exitX=1;exitY=0.5;exitDx=0;exitDy=0;entryX=0;entryY=0.5;entryDx=0;entryDy=0;" parent="H9uLp7tHIZIzgpHieKHO-9" source="H9uLp7tHIZIzgpHieKHO-11" target="H9uLp7tHIZIzgpHieKHO-13" edge="1">
          <mxGeometry relative="1" as="geometry" />
        </mxCell>
        <mxCell id="H9uLp7tHIZIzgpHieKHO-11" value="Extract Account Data" style="ellipse;whiteSpace=wrap;html=1;rounded=0;shadow=0;labelBackgroundColor=none;strokeWidth=1;fontFamily=Verdana;fontSize=8;align=center;fillColor=#ffe6cc;strokeColor=#d79b00;fontStyle=1" parent="H9uLp7tHIZIzgpHieKHO-9" vertex="1">
          <mxGeometry x="40" y="45" width="60" height="60" as="geometry" />
        </mxCell>
        <mxCell id="H9uLp7tHIZIzgpHieKHO-18" style="edgeStyle=orthogonalEdgeStyle;rounded=0;orthogonalLoop=1;jettySize=auto;html=1;exitX=1;exitY=0.5;exitDx=0;exitDy=0;entryX=0;entryY=0.5;entryDx=0;entryDy=0;" parent="H9uLp7tHIZIzgpHieKHO-9" source="H9uLp7tHIZIzgpHieKHO-13" target="H9uLp7tHIZIzgpHieKHO-15" edge="1">
          <mxGeometry relative="1" as="geometry" />
        </mxCell>
        <mxCell id="H9uLp7tHIZIzgpHieKHO-13" value="Choose Clients tab" style="rounded=1;whiteSpace=wrap;html=1;shadow=0;labelBackgroundColor=none;strokeWidth=1;fontFamily=Verdana;fontSize=8;align=center;fillColor=#b1ddf0;strokeColor=#10739e;fontStyle=1" parent="H9uLp7tHIZIzgpHieKHO-9" vertex="1">
          <mxGeometry x="150" y="48.94" width="90" height="52.13" as="geometry" />
        </mxCell>
        <mxCell id="H9uLp7tHIZIzgpHieKHO-19" style="edgeStyle=orthogonalEdgeStyle;rounded=0;orthogonalLoop=1;jettySize=auto;html=1;exitX=1;exitY=0.5;exitDx=0;exitDy=0;entryX=0;entryY=0.5;entryDx=0;entryDy=0;" parent="H9uLp7tHIZIzgpHieKHO-9" source="H9uLp7tHIZIzgpHieKHO-15" target="H9uLp7tHIZIzgpHieKHO-16" edge="1">
          <mxGeometry relative="1" as="geometry" />
        </mxCell>
        <mxCell id="H9uLp7tHIZIzgpHieKHO-15" value="Choose Search for client option" style="rounded=1;whiteSpace=wrap;html=1;shadow=0;labelBackgroundColor=none;strokeWidth=1;fontFamily=Verdana;fontSize=8;align=center;fillColor=#b1ddf0;strokeColor=#10739e;fontStyle=1" parent="H9uLp7tHIZIzgpHieKHO-9" vertex="1">
          <mxGeometry x="270" y="48.940000000000055" width="90" height="52.13" as="geometry" />
        </mxCell>
        <mxCell id="H9uLp7tHIZIzgpHieKHO-21" style="edgeStyle=orthogonalEdgeStyle;rounded=0;orthogonalLoop=1;jettySize=auto;html=1;exitX=1;exitY=0.5;exitDx=0;exitDy=0;entryX=0;entryY=0.5;entryDx=0;entryDy=0;" parent="H9uLp7tHIZIzgpHieKHO-9" source="H9uLp7tHIZIzgpHieKHO-16" target="H9uLp7tHIZIzgpHieKHO-20" edge="1">
          <mxGeometry relative="1" as="geometry" />
        </mxCell>
        <mxCell id="H9uLp7tHIZIzgpHieKHO-16" value="Choose By Client Id" style="rounded=1;whiteSpace=wrap;html=1;shadow=0;labelBackgroundColor=none;strokeWidth=1;fontFamily=Verdana;fontSize=8;align=center;fillColor=#b1ddf0;strokeColor=#10739e;fontStyle=1" parent="H9uLp7tHIZIzgpHieKHO-9" vertex="1">
          <mxGeometry x="390" y="48.940000000000005" width="90" height="52.13" as="geometry" />
        </mxCell>
        <mxCell id="H9uLp7tHIZIzgpHieKHO-23" style="edgeStyle=orthogonalEdgeStyle;rounded=0;orthogonalLoop=1;jettySize=auto;html=1;exitX=1;exitY=0.5;exitDx=0;exitDy=0;entryX=0;entryY=0.5;entryDx=0;entryDy=0;" parent="H9uLp7tHIZIzgpHieKHO-9" source="H9uLp7tHIZIzgpHieKHO-20" target="H9uLp7tHIZIzgpHieKHO-22" edge="1">
          <mxGeometry relative="1" as="geometry" />
        </mxCell>
        <mxCell id="H9uLp7tHIZIzgpHieKHO-20" value="Put Extracted Client Id in the Text area" style="rounded=1;whiteSpace=wrap;html=1;shadow=0;labelBackgroundColor=none;strokeWidth=1;fontFamily=Verdana;fontSize=8;align=center;fillColor=#b1ddf0;strokeColor=#10739e;fontStyle=1" parent="H9uLp7tHIZIzgpHieKHO-9" vertex="1">
          <mxGeometry x="510" y="48.92999999999995" width="90" height="52.13" as="geometry" />
        </mxCell>
        <mxCell id="H9uLp7tHIZIzgpHieKHO-25" style="edgeStyle=orthogonalEdgeStyle;rounded=0;orthogonalLoop=1;jettySize=auto;html=1;exitX=1;exitY=0.5;exitDx=0;exitDy=0;" parent="H9uLp7tHIZIzgpHieKHO-9" source="H9uLp7tHIZIzgpHieKHO-22" target="H9uLp7tHIZIzgpHieKHO-24" edge="1">
          <mxGeometry relative="1" as="geometry" />
        </mxCell>
        <mxCell id="H9uLp7tHIZIzgpHieKHO-22" value="Check the include inactive clients checkbox" style="rounded=1;whiteSpace=wrap;html=1;shadow=0;labelBackgroundColor=none;strokeWidth=1;fontFamily=Verdana;fontSize=8;align=center;fillColor=#b1ddf0;strokeColor=#10739e;fontStyle=1" parent="H9uLp7tHIZIzgpHieKHO-9" vertex="1">
          <mxGeometry x="620" y="48.92999999999995" width="90" height="52.13" as="geometry" />
        </mxCell>
        <mxCell id="H9uLp7tHIZIzgpHieKHO-27" style="edgeStyle=orthogonalEdgeStyle;rounded=0;orthogonalLoop=1;jettySize=auto;html=1;exitX=1;exitY=0.5;exitDx=0;exitDy=0;entryX=0;entryY=0.5;entryDx=0;entryDy=0;" parent="H9uLp7tHIZIzgpHieKHO-9" source="H9uLp7tHIZIzgpHieKHO-24" target="H9uLp7tHIZIzgpHieKHO-26" edge="1">
          <mxGeometry relative="1" as="geometry" />
        </mxCell>
        <mxCell id="H9uLp7tHIZIzgpHieKHO-24" value="Click Search&lt;div&gt;&amp;nbsp;Button&lt;/div&gt;" style="rounded=1;whiteSpace=wrap;html=1;shadow=0;labelBackgroundColor=none;strokeWidth=1;fontFamily=Verdana;fontSize=8;align=center;fillColor=#b1ddf0;strokeColor=#10739e;fontStyle=1" parent="H9uLp7tHIZIzgpHieKHO-9" vertex="1">
          <mxGeometry x="730" y="48.940000000000055" width="90" height="52.13" as="geometry" />
        </mxCell>
        <mxCell id="H9uLp7tHIZIzgpHieKHO-29" value="No" style="edgeStyle=orthogonalEdgeStyle;rounded=0;orthogonalLoop=1;jettySize=auto;html=1;exitX=0.5;exitY=1;exitDx=0;exitDy=0;entryX=0.5;entryY=0;entryDx=0;entryDy=0;fontStyle=1" parent="H9uLp7tHIZIzgpHieKHO-9" source="H9uLp7tHIZIzgpHieKHO-26" target="H9uLp7tHIZIzgpHieKHO-28" edge="1">
          <mxGeometry relative="1" as="geometry" />
        </mxCell>
        <mxCell id="H9uLp7tHIZIzgpHieKHO-31" value="Yes" style="edgeStyle=orthogonalEdgeStyle;rounded=0;orthogonalLoop=1;jettySize=auto;html=1;exitX=1;exitY=0.5;exitDx=0;exitDy=0;entryX=0;entryY=0.5;entryDx=0;entryDy=0;fontStyle=1" parent="H9uLp7tHIZIzgpHieKHO-9" source="H9uLp7tHIZIzgpHieKHO-26" target="H9uLp7tHIZIzgpHieKHO-30" edge="1">
          <mxGeometry relative="1" as="geometry" />
        </mxCell>
        <mxCell id="H9uLp7tHIZIzgpHieKHO-26" value="Existed&amp;nbsp;&lt;div&gt;Client ?&lt;/div&gt;" style="rhombus;whiteSpace=wrap;html=1;fillColor=#e1d5e7;strokeColor=#9673a6;fontSize=7;fontStyle=1" parent="H9uLp7tHIZIzgpHieKHO-9" vertex="1">
          <mxGeometry x="850" y="44.99000000000001" width="60" height="60" as="geometry" />
        </mxCell>
        <mxCell id="H9uLp7tHIZIzgpHieKHO-28" value="BE03" style="ellipse;whiteSpace=wrap;html=1;fontStyle=1;fillColor=#e51400;fontColor=#ffffff;strokeColor=#B20000;" parent="H9uLp7tHIZIzgpHieKHO-9" vertex="1">
          <mxGeometry x="855" y="160" width="50" height="30" as="geometry" />
        </mxCell>
        <mxCell id="H9uLp7tHIZIzgpHieKHO-30" value="Search CLient Accounts" style="ellipse;whiteSpace=wrap;html=1;rounded=0;shadow=0;labelBackgroundColor=none;strokeWidth=1;fontFamily=Verdana;fontSize=8;align=center;fillColor=#bac8d3;strokeColor=#23445d;fontStyle=1" parent="H9uLp7tHIZIzgpHieKHO-9" vertex="1">
          <mxGeometry x="980" y="44.99000000000005" width="60" height="60" as="geometry" />
        </mxCell>
        <mxCell id="H9uLp7tHIZIzgpHieKHO-32" value="Search Client Accounts" style="swimlane;html=1;startSize=20;horizontal=0;fillColor=#bac8d3;strokeColor=#23445d;" parent="2b4e8129b02d487f-1" vertex="1">
          <mxGeometry y="720" width="1140" height="200" as="geometry" />
        </mxCell>
        <mxCell id="H9uLp7tHIZIzgpHieKHO-33" style="edgeStyle=orthogonalEdgeStyle;rounded=0;orthogonalLoop=1;jettySize=auto;html=1;exitX=1;exitY=0.5;exitDx=0;exitDy=0;entryX=0;entryY=0.5;entryDx=0;entryDy=0;" parent="H9uLp7tHIZIzgpHieKHO-32" source="H9uLp7tHIZIzgpHieKHO-34" target="H9uLp7tHIZIzgpHieKHO-36" edge="1">
          <mxGeometry relative="1" as="geometry" />
        </mxCell>
        <mxCell id="H9uLp7tHIZIzgpHieKHO-34" value="Search CLients" style="ellipse;whiteSpace=wrap;html=1;rounded=0;shadow=0;labelBackgroundColor=none;strokeWidth=1;fontFamily=Verdana;fontSize=8;align=center;fillColor=#b1ddf0;strokeColor=#10739e;fontStyle=1" parent="H9uLp7tHIZIzgpHieKHO-32" vertex="1">
          <mxGeometry x="40" y="45" width="60" height="60" as="geometry" />
        </mxCell>
        <mxCell id="H9uLp7tHIZIzgpHieKHO-35" style="edgeStyle=orthogonalEdgeStyle;rounded=0;orthogonalLoop=1;jettySize=auto;html=1;exitX=1;exitY=0.5;exitDx=0;exitDy=0;entryX=0;entryY=0.5;entryDx=0;entryDy=0;" parent="H9uLp7tHIZIzgpHieKHO-32" source="H9uLp7tHIZIzgpHieKHO-36" target="H9uLp7tHIZIzgpHieKHO-38" edge="1">
          <mxGeometry relative="1" as="geometry" />
        </mxCell>
        <mxCell id="H9uLp7tHIZIzgpHieKHO-36" value="Double click on Client&amp;nbsp; Id record" style="rounded=1;whiteSpace=wrap;html=1;shadow=0;labelBackgroundColor=none;strokeWidth=1;fontFamily=Verdana;fontSize=8;align=center;fillColor=#bac8d3;strokeColor=#23445d;fontStyle=1" parent="H9uLp7tHIZIzgpHieKHO-32" vertex="1">
          <mxGeometry x="150" y="48.94" width="90" height="52.13" as="geometry" />
        </mxCell>
        <mxCell id="H9uLp7tHIZIzgpHieKHO-37" style="edgeStyle=orthogonalEdgeStyle;rounded=0;orthogonalLoop=1;jettySize=auto;html=1;exitX=1;exitY=0.5;exitDx=0;exitDy=0;entryX=0;entryY=0.5;entryDx=0;entryDy=0;" parent="H9uLp7tHIZIzgpHieKHO-32" source="H9uLp7tHIZIzgpHieKHO-38" edge="1">
          <mxGeometry relative="1" as="geometry">
            <mxPoint x="390" y="75.00500000000011" as="targetPoint" />
          </mxGeometry>
        </mxCell>
        <mxCell id="H9uLp7tHIZIzgpHieKHO-38" value="Click Client Accounts button" style="rounded=1;whiteSpace=wrap;html=1;shadow=0;labelBackgroundColor=none;strokeWidth=1;fontFamily=Verdana;fontSize=8;align=center;fillColor=#bac8d3;strokeColor=#23445d;fontStyle=1" parent="H9uLp7tHIZIzgpHieKHO-32" vertex="1">
          <mxGeometry x="270" y="48.940000000000055" width="90" height="52.13" as="geometry" />
        </mxCell>
        <mxCell id="H9uLp7tHIZIzgpHieKHO-39" value="Yes" style="edgeStyle=orthogonalEdgeStyle;rounded=0;orthogonalLoop=1;jettySize=auto;html=1;exitX=1;exitY=0.5;exitDx=0;exitDy=0;entryX=0;entryY=0.5;entryDx=0;entryDy=0;fontStyle=1" parent="H9uLp7tHIZIzgpHieKHO-32" source="H9uLp7tHIZIzgpHieKHO-52" edge="1">
          <mxGeometry relative="1" as="geometry">
            <mxPoint x="480" y="75.00500000000011" as="sourcePoint" />
            <mxPoint x="570" y="74.98500000000013" as="targetPoint" />
          </mxGeometry>
        </mxCell>
        <mxCell id="H9uLp7tHIZIzgpHieKHO-51" value="Compare Sums" style="ellipse;whiteSpace=wrap;html=1;rounded=0;shadow=0;labelBackgroundColor=none;strokeWidth=1;fontFamily=Verdana;fontSize=8;align=center;fontStyle=1" parent="H9uLp7tHIZIzgpHieKHO-32" vertex="1">
          <mxGeometry x="570" y="37.47" width="80" height="75.02" as="geometry" />
        </mxCell>
        <mxCell id="H9uLp7tHIZIzgpHieKHO-54" value="No" style="edgeStyle=orthogonalEdgeStyle;rounded=0;orthogonalLoop=1;jettySize=auto;html=1;exitX=0.5;exitY=1;exitDx=0;exitDy=0;entryX=0.5;entryY=0;entryDx=0;entryDy=0;fontStyle=1" parent="H9uLp7tHIZIzgpHieKHO-32" source="H9uLp7tHIZIzgpHieKHO-52" target="H9uLp7tHIZIzgpHieKHO-53" edge="1">
          <mxGeometry relative="1" as="geometry" />
        </mxCell>
        <mxCell id="H9uLp7tHIZIzgpHieKHO-52" value="Account with extracted client account number existed" style="rhombus;whiteSpace=wrap;html=1;fillColor=#e1d5e7;strokeColor=#9673a6;fontSize=7;fontStyle=1" parent="H9uLp7tHIZIzgpHieKHO-32" vertex="1">
          <mxGeometry x="390" y="32.489999999999995" width="80" height="84.99" as="geometry" />
        </mxCell>
        <mxCell id="H9uLp7tHIZIzgpHieKHO-53" value="BE03" style="ellipse;whiteSpace=wrap;html=1;fontStyle=1;fillColor=#e51400;fontColor=#ffffff;strokeColor=#B20000;" parent="H9uLp7tHIZIzgpHieKHO-32" vertex="1">
          <mxGeometry x="405" y="160" width="50" height="30" as="geometry" />
        </mxCell>
        <mxCell id="H9uLp7tHIZIzgpHieKHO-55" value="Compare Sums&amp;nbsp;" style="swimlane;html=1;startSize=20;horizontal=0;" parent="2b4e8129b02d487f-1" vertex="1">
          <mxGeometry y="920" width="1140" height="200" as="geometry" />
        </mxCell>
        <mxCell id="H9uLp7tHIZIzgpHieKHO-56" style="edgeStyle=orthogonalEdgeStyle;rounded=0;orthogonalLoop=1;jettySize=auto;html=1;exitX=1;exitY=0.5;exitDx=0;exitDy=0;entryX=0;entryY=0.5;entryDx=0;entryDy=0;" parent="H9uLp7tHIZIzgpHieKHO-55" source="H9uLp7tHIZIzgpHieKHO-57" target="H9uLp7tHIZIzgpHieKHO-59" edge="1">
          <mxGeometry relative="1" as="geometry" />
        </mxCell>
        <mxCell id="H9uLp7tHIZIzgpHieKHO-57" value="Search Client Accounts" style="ellipse;whiteSpace=wrap;html=1;rounded=0;shadow=0;labelBackgroundColor=none;strokeWidth=1;fontFamily=Verdana;fontSize=8;align=center;fillColor=#bac8d3;strokeColor=#23445d;fontStyle=1" parent="H9uLp7tHIZIzgpHieKHO-55" vertex="1">
          <mxGeometry x="40" y="45" width="60" height="60" as="geometry" />
        </mxCell>
        <mxCell id="H9uLp7tHIZIzgpHieKHO-58" style="edgeStyle=orthogonalEdgeStyle;rounded=0;orthogonalLoop=1;jettySize=auto;html=1;exitX=1;exitY=0.5;exitDx=0;exitDy=0;entryX=0;entryY=0.5;entryDx=0;entryDy=0;" parent="H9uLp7tHIZIzgpHieKHO-55" source="H9uLp7tHIZIzgpHieKHO-59" target="H9uLp7tHIZIzgpHieKHO-61" edge="1">
          <mxGeometry relative="1" as="geometry" />
        </mxCell>
        <mxCell id="H9uLp7tHIZIzgpHieKHO-59" value="Double click on account with extracted account number" style="rounded=1;whiteSpace=wrap;html=1;shadow=0;labelBackgroundColor=none;strokeWidth=1;fontFamily=Verdana;fontSize=8;align=center;fontStyle=1" parent="H9uLp7tHIZIzgpHieKHO-55" vertex="1">
          <mxGeometry x="150" y="48.94" width="90" height="52.13" as="geometry" />
        </mxCell>
        <mxCell id="H9uLp7tHIZIzgpHieKHO-60" style="edgeStyle=orthogonalEdgeStyle;rounded=0;orthogonalLoop=1;jettySize=auto;html=1;exitX=1;exitY=0.5;exitDx=0;exitDy=0;entryX=0;entryY=0.5;entryDx=0;entryDy=0;" parent="H9uLp7tHIZIzgpHieKHO-55" source="H9uLp7tHIZIzgpHieKHO-61" edge="1">
          <mxGeometry relative="1" as="geometry">
            <mxPoint x="390" y="75.00500000000011" as="targetPoint" />
          </mxGeometry>
        </mxCell>
        <mxCell id="H9uLp7tHIZIzgpHieKHO-61" value="Click on Show All button" style="rounded=1;whiteSpace=wrap;html=1;shadow=0;labelBackgroundColor=none;strokeWidth=1;fontFamily=Verdana;fontSize=8;align=center;fontStyle=1" parent="H9uLp7tHIZIzgpHieKHO-55" vertex="1">
          <mxGeometry x="270" y="48.940000000000055" width="90" height="52.13" as="geometry" />
        </mxCell>
        <mxCell id="H9uLp7tHIZIzgpHieKHO-62" value="No" style="edgeStyle=orthogonalEdgeStyle;rounded=0;orthogonalLoop=1;jettySize=auto;html=1;exitX=1;exitY=0.5;exitDx=0;exitDy=0;entryX=0;entryY=0.5;entryDx=0;entryDy=0;fontStyle=1" parent="H9uLp7tHIZIzgpHieKHO-55" source="H9uLp7tHIZIzgpHieKHO-65" edge="1">
          <mxGeometry relative="1" as="geometry">
            <mxPoint x="480" y="75.00500000000011" as="sourcePoint" />
            <mxPoint x="570" y="74.98500000000013" as="targetPoint" />
          </mxGeometry>
        </mxCell>
        <mxCell id="H9uLp7tHIZIzgpHieKHO-64" value="Yes" style="edgeStyle=orthogonalEdgeStyle;rounded=0;orthogonalLoop=1;jettySize=auto;html=1;exitX=0.5;exitY=1;exitDx=0;exitDy=0;entryX=0.5;entryY=0;entryDx=0;entryDy=0;fontStyle=1" parent="H9uLp7tHIZIzgpHieKHO-55" source="H9uLp7tHIZIzgpHieKHO-65" target="H9uLp7tHIZIzgpHieKHO-66" edge="1">
          <mxGeometry relative="1" as="geometry" />
        </mxCell>
        <mxCell id="H9uLp7tHIZIzgpHieKHO-65" value="check no transactions&lt;div&gt;&amp;nbsp;found&lt;/div&gt;" style="rhombus;whiteSpace=wrap;html=1;fillColor=#e1d5e7;strokeColor=#9673a6;fontSize=7;fontStyle=1" parent="H9uLp7tHIZIzgpHieKHO-55" vertex="1">
          <mxGeometry x="390" y="32.489999999999995" width="80" height="84.99" as="geometry" />
        </mxCell>
        <mxCell id="H9uLp7tHIZIzgpHieKHO-66" value="BE03" style="ellipse;whiteSpace=wrap;html=1;fontStyle=1;fillColor=#e51400;fontColor=#ffffff;strokeColor=#B20000;" parent="H9uLp7tHIZIzgpHieKHO-55" vertex="1">
          <mxGeometry x="405" y="160" width="50" height="30" as="geometry" />
        </mxCell>
        <mxCell id="H9uLp7tHIZIzgpHieKHO-69" style="edgeStyle=orthogonalEdgeStyle;rounded=0;orthogonalLoop=1;jettySize=auto;html=1;exitX=1;exitY=0.5;exitDx=0;exitDy=0;entryX=0;entryY=0.5;entryDx=0;entryDy=0;" parent="H9uLp7tHIZIzgpHieKHO-55" source="H9uLp7tHIZIzgpHieKHO-67" target="H9uLp7tHIZIzgpHieKHO-68" edge="1">
          <mxGeometry relative="1" as="geometry" />
        </mxCell>
        <mxCell id="H9uLp7tHIZIzgpHieKHO-67" value="Sum All transactions amount" style="rounded=1;whiteSpace=wrap;html=1;shadow=0;labelBackgroundColor=none;strokeWidth=1;fontFamily=Verdana;fontSize=8;align=center;fontStyle=1" parent="H9uLp7tHIZIzgpHieKHO-55" vertex="1">
          <mxGeometry x="570" y="48.940000000000055" width="90" height="52.13" as="geometry" />
        </mxCell>
        <mxCell id="H9uLp7tHIZIzgpHieKHO-72" style="edgeStyle=orthogonalEdgeStyle;rounded=0;orthogonalLoop=1;jettySize=auto;html=1;exitX=1;exitY=0.5;exitDx=0;exitDy=0;entryX=0;entryY=0.5;entryDx=0;entryDy=0;" parent="H9uLp7tHIZIzgpHieKHO-55" source="H9uLp7tHIZIzgpHieKHO-68" edge="1">
          <mxGeometry relative="1" as="geometry">
            <mxPoint x="800" y="75.00500000000056" as="targetPoint" />
          </mxGeometry>
        </mxCell>
        <mxCell id="H9uLp7tHIZIzgpHieKHO-68" value="Save estimated sum in memory" style="rounded=1;whiteSpace=wrap;html=1;shadow=0;labelBackgroundColor=none;strokeWidth=1;fontFamily=Verdana;fontSize=8;align=center;fontStyle=1" parent="H9uLp7tHIZIzgpHieKHO-55" vertex="1">
          <mxGeometry x="680" y="48.94" width="90" height="52.13" as="geometry" />
        </mxCell>
        <mxCell id="bZa8j4vfv3Xw4KsmPr_7-1" value="Update Work Item" style="ellipse;whiteSpace=wrap;html=1;rounded=0;shadow=0;labelBackgroundColor=none;strokeWidth=1;fontFamily=Verdana;fontSize=8;align=center;fontStyle=1;fillColor=#b0e3e6;strokeColor=#0e8088;" parent="H9uLp7tHIZIzgpHieKHO-55" vertex="1">
          <mxGeometry x="940" y="37.47000000000003" width="80" height="75.02" as="geometry" />
        </mxCell>
        <mxCell id="bZa8j4vfv3Xw4KsmPr_7-2" style="edgeStyle=orthogonalEdgeStyle;rounded=0;orthogonalLoop=1;jettySize=auto;html=1;exitX=1;exitY=0.5;exitDx=0;exitDy=0;entryX=0;entryY=0.5;entryDx=0;entryDy=0;" parent="H9uLp7tHIZIzgpHieKHO-55" source="bZa8j4vfv3Xw4KsmPr_7-3" target="bZa8j4vfv3Xw4KsmPr_7-1" edge="1">
          <mxGeometry relative="1" as="geometry" />
        </mxCell>
        <mxCell id="bZa8j4vfv3Xw4KsmPr_7-3" value="Control app tabs" style="rounded=1;whiteSpace=wrap;html=1;shadow=0;labelBackgroundColor=none;strokeWidth=1;fontFamily=Verdana;fontSize=8;align=center;fontStyle=1" parent="H9uLp7tHIZIzgpHieKHO-55" vertex="1">
          <mxGeometry x="800" y="48.90000000000009" width="90" height="52.13" as="geometry" />
        </mxCell>
        <mxCell id="H9uLp7tHIZIzgpHieKHO-78" value="Update Work Item" style="swimlane;html=1;startSize=20;horizontal=0;fillColor=#b0e3e6;strokeColor=#0e8088;" parent="2b4e8129b02d487f-1" vertex="1">
          <mxGeometry y="1120" width="1140" height="220" as="geometry" />
        </mxCell>
        <mxCell id="H9uLp7tHIZIzgpHieKHO-79" style="edgeStyle=orthogonalEdgeStyle;rounded=0;orthogonalLoop=1;jettySize=auto;html=1;exitX=1;exitY=0.5;exitDx=0;exitDy=0;entryX=0;entryY=0.5;entryDx=0;entryDy=0;" parent="H9uLp7tHIZIzgpHieKHO-78" source="H9uLp7tHIZIzgpHieKHO-80" edge="1">
          <mxGeometry relative="1" as="geometry">
            <mxPoint x="149.99999999999977" y="75.00500000000056" as="targetPoint" />
          </mxGeometry>
        </mxCell>
        <mxCell id="H9uLp7tHIZIzgpHieKHO-80" value="Compare Sums" style="ellipse;whiteSpace=wrap;html=1;rounded=0;shadow=0;labelBackgroundColor=none;strokeWidth=1;fontFamily=Verdana;fontSize=8;align=center;fontStyle=1" parent="H9uLp7tHIZIzgpHieKHO-78" vertex="1">
          <mxGeometry x="40" y="45" width="60" height="60" as="geometry" />
        </mxCell>
        <mxCell id="H9uLp7tHIZIzgpHieKHO-98" value="&lt;span style=&quot;font-family: Verdana; font-size: 8px;&quot;&gt;Compare Estimated Sum with Account Amount&lt;/span&gt;" style="rhombus;whiteSpace=wrap;html=1;fillColor=#e1d5e7;strokeColor=#9673a6;fontSize=7;fontStyle=1" parent="H9uLp7tHIZIzgpHieKHO-78" vertex="1">
          <mxGeometry x="150" y="32.50999999999999" width="80" height="84.99" as="geometry" />
        </mxCell>
        <mxCell id="H9uLp7tHIZIzgpHieKHO-74" value="Not Equal" style="edgeStyle=orthogonalEdgeStyle;rounded=0;orthogonalLoop=1;jettySize=auto;html=1;exitX=0.5;exitY=1;exitDx=0;exitDy=0;entryX=0;entryY=0.5;entryDx=0;entryDy=0;fontStyle=1" parent="H9uLp7tHIZIzgpHieKHO-78" target="H9uLp7tHIZIzgpHieKHO-102" edge="1">
          <mxGeometry relative="1" as="geometry">
            <mxPoint x="190" y="117.50000000000045" as="sourcePoint" />
            <mxPoint x="190" y="160" as="targetPoint" />
          </mxGeometry>
        </mxCell>
        <mxCell id="H9uLp7tHIZIzgpHieKHO-109" style="edgeStyle=orthogonalEdgeStyle;rounded=0;orthogonalLoop=1;jettySize=auto;html=1;exitX=1;exitY=0.5;exitDx=0;exitDy=0;entryX=0;entryY=0.5;entryDx=0;entryDy=0;" parent="H9uLp7tHIZIzgpHieKHO-78" source="H9uLp7tHIZIzgpHieKHO-100" target="H9uLp7tHIZIzgpHieKHO-104" edge="1">
          <mxGeometry relative="1" as="geometry" />
        </mxCell>
        <mxCell id="H9uLp7tHIZIzgpHieKHO-100" value="Click On Update Work Item" style="rounded=1;whiteSpace=wrap;html=1;shadow=0;labelBackgroundColor=none;strokeWidth=1;fontFamily=Verdana;fontSize=8;align=center;fontStyle=1;fillColor=#b0e3e6;strokeColor=#0e8088;" parent="H9uLp7tHIZIzgpHieKHO-78" vertex="1">
          <mxGeometry x="325" y="48.930000000000064" width="90" height="52.13" as="geometry" />
        </mxCell>
        <mxCell id="H9uLp7tHIZIzgpHieKHO-99" value="Equal" style="edgeStyle=orthogonalEdgeStyle;rounded=0;orthogonalLoop=1;jettySize=auto;html=1;exitX=1;exitY=0.5;exitDx=0;exitDy=0;entryX=0;entryY=0.5;entryDx=0;entryDy=0;fontStyle=1" parent="H9uLp7tHIZIzgpHieKHO-78" source="H9uLp7tHIZIzgpHieKHO-98" target="H9uLp7tHIZIzgpHieKHO-100" edge="1">
          <mxGeometry relative="1" as="geometry">
            <mxPoint x="240" y="80.00500000000056" as="sourcePoint" />
            <mxPoint x="320" y="80" as="targetPoint" />
          </mxGeometry>
        </mxCell>
        <mxCell id="H9uLp7tHIZIzgpHieKHO-117" style="edgeStyle=orthogonalEdgeStyle;rounded=0;orthogonalLoop=1;jettySize=auto;html=1;exitX=1;exitY=0.5;exitDx=0;exitDy=0;entryX=0;entryY=0.5;entryDx=0;entryDy=0;" parent="H9uLp7tHIZIzgpHieKHO-78" source="H9uLp7tHIZIzgpHieKHO-102" target="H9uLp7tHIZIzgpHieKHO-114" edge="1">
          <mxGeometry relative="1" as="geometry" />
        </mxCell>
        <mxCell id="H9uLp7tHIZIzgpHieKHO-102" value="Click On Update Work Item" style="rounded=1;whiteSpace=wrap;html=1;shadow=0;labelBackgroundColor=none;strokeWidth=1;fontFamily=Verdana;fontSize=8;align=center;fontStyle=1;fillColor=#b0e3e6;strokeColor=#0e8088;" parent="H9uLp7tHIZIzgpHieKHO-78" vertex="1">
          <mxGeometry x="260" y="148.93999999999988" width="90" height="52.13" as="geometry" />
        </mxCell>
        <mxCell id="H9uLp7tHIZIzgpHieKHO-110" style="edgeStyle=orthogonalEdgeStyle;rounded=0;orthogonalLoop=1;jettySize=auto;html=1;exitX=1;exitY=0.5;exitDx=0;exitDy=0;entryX=0;entryY=0.5;entryDx=0;entryDy=0;" parent="H9uLp7tHIZIzgpHieKHO-78" source="H9uLp7tHIZIzgpHieKHO-104" target="H9uLp7tHIZIzgpHieKHO-105" edge="1">
          <mxGeometry relative="1" as="geometry" />
        </mxCell>
        <mxCell id="H9uLp7tHIZIzgpHieKHO-104" value="Change Status to Completed" style="rounded=1;whiteSpace=wrap;html=1;shadow=0;labelBackgroundColor=none;strokeWidth=1;fontFamily=Verdana;fontSize=8;align=center;fontStyle=1;fillColor=#b0e3e6;strokeColor=#0e8088;" parent="H9uLp7tHIZIzgpHieKHO-78" vertex="1">
          <mxGeometry x="450" y="48.940000000000055" width="90" height="52.13" as="geometry" />
        </mxCell>
        <mxCell id="H9uLp7tHIZIzgpHieKHO-111" style="edgeStyle=orthogonalEdgeStyle;rounded=0;orthogonalLoop=1;jettySize=auto;html=1;exitX=1;exitY=0.5;exitDx=0;exitDy=0;entryX=0;entryY=0.5;entryDx=0;entryDy=0;" parent="H9uLp7tHIZIzgpHieKHO-78" source="H9uLp7tHIZIzgpHieKHO-105" target="H9uLp7tHIZIzgpHieKHO-106" edge="1">
          <mxGeometry relative="1" as="geometry" />
        </mxCell>
        <mxCell id="H9uLp7tHIZIzgpHieKHO-105" value="Add Comment &quot;Account Match&quot;" style="rounded=1;whiteSpace=wrap;html=1;shadow=0;labelBackgroundColor=none;strokeWidth=1;fontFamily=Verdana;fontSize=8;align=center;fontStyle=1;fillColor=#b0e3e6;strokeColor=#0e8088;" parent="H9uLp7tHIZIzgpHieKHO-78" vertex="1">
          <mxGeometry x="570" y="48.930000000000064" width="90" height="52.13" as="geometry" />
        </mxCell>
        <mxCell id="H9uLp7tHIZIzgpHieKHO-113" style="edgeStyle=orthogonalEdgeStyle;rounded=0;orthogonalLoop=1;jettySize=auto;html=1;exitX=1;exitY=0.5;exitDx=0;exitDy=0;entryX=0;entryY=0.5;entryDx=0;entryDy=0;" parent="H9uLp7tHIZIzgpHieKHO-78" source="H9uLp7tHIZIzgpHieKHO-106" target="H9uLp7tHIZIzgpHieKHO-112" edge="1">
          <mxGeometry relative="1" as="geometry" />
        </mxCell>
        <mxCell id="H9uLp7tHIZIzgpHieKHO-106" value="Click Update work Item button" style="rounded=1;whiteSpace=wrap;html=1;shadow=0;labelBackgroundColor=none;strokeWidth=1;fontFamily=Verdana;fontSize=8;align=center;fontStyle=1;fillColor=#b0e3e6;strokeColor=#0e8088;" parent="H9uLp7tHIZIzgpHieKHO-78" vertex="1">
          <mxGeometry x="690" y="48.930000000000064" width="90" height="52.13" as="geometry" />
        </mxCell>
        <mxCell id="H9uLp7tHIZIzgpHieKHO-112" value="Get Queue Item" style="ellipse;whiteSpace=wrap;html=1;rounded=0;shadow=0;labelBackgroundColor=none;strokeWidth=1;fontFamily=Verdana;fontSize=8;align=center;fontStyle=1;fillColor=#d5e8d4;strokeColor=#82b366;" parent="H9uLp7tHIZIzgpHieKHO-78" vertex="1">
          <mxGeometry x="830" y="45" width="60" height="60" as="geometry" />
        </mxCell>
        <mxCell id="H9uLp7tHIZIzgpHieKHO-118" style="edgeStyle=orthogonalEdgeStyle;rounded=0;orthogonalLoop=1;jettySize=auto;html=1;exitX=1;exitY=0.5;exitDx=0;exitDy=0;entryX=0;entryY=0.5;entryDx=0;entryDy=0;" parent="H9uLp7tHIZIzgpHieKHO-78" source="H9uLp7tHIZIzgpHieKHO-114" target="H9uLp7tHIZIzgpHieKHO-115" edge="1">
          <mxGeometry relative="1" as="geometry" />
        </mxCell>
        <mxCell id="H9uLp7tHIZIzgpHieKHO-114" value="Change Status to rejected" style="rounded=1;whiteSpace=wrap;html=1;shadow=0;labelBackgroundColor=none;strokeWidth=1;fontFamily=Verdana;fontSize=8;align=center;fontStyle=1;fillColor=#b0e3e6;strokeColor=#0e8088;" parent="H9uLp7tHIZIzgpHieKHO-78" vertex="1">
          <mxGeometry x="380" y="148.93000000000006" width="90" height="52.13" as="geometry" />
        </mxCell>
        <mxCell id="H9uLp7tHIZIzgpHieKHO-119" style="edgeStyle=orthogonalEdgeStyle;rounded=0;orthogonalLoop=1;jettySize=auto;html=1;exitX=1;exitY=0.5;exitDx=0;exitDy=0;entryX=0;entryY=0.5;entryDx=0;entryDy=0;" parent="H9uLp7tHIZIzgpHieKHO-78" source="H9uLp7tHIZIzgpHieKHO-115" target="H9uLp7tHIZIzgpHieKHO-116" edge="1">
          <mxGeometry relative="1" as="geometry" />
        </mxCell>
        <mxCell id="H9uLp7tHIZIzgpHieKHO-115" value="Add Comment&amp;nbsp;&lt;div&gt;&quot;Account mismatch&quot;&lt;/div&gt;" style="rounded=1;whiteSpace=wrap;html=1;shadow=0;labelBackgroundColor=none;strokeWidth=1;fontFamily=Verdana;fontSize=8;align=center;fontStyle=1;fillColor=#b0e3e6;strokeColor=#0e8088;" parent="H9uLp7tHIZIzgpHieKHO-78" vertex="1">
          <mxGeometry x="500" y="148.93000000000006" width="90" height="52.13" as="geometry" />
        </mxCell>
        <mxCell id="H9uLp7tHIZIzgpHieKHO-120" style="edgeStyle=orthogonalEdgeStyle;rounded=0;orthogonalLoop=1;jettySize=auto;html=1;exitX=1;exitY=0.5;exitDx=0;exitDy=0;entryX=0.5;entryY=1;entryDx=0;entryDy=0;" parent="H9uLp7tHIZIzgpHieKHO-78" source="H9uLp7tHIZIzgpHieKHO-116" target="H9uLp7tHIZIzgpHieKHO-112" edge="1">
          <mxGeometry relative="1" as="geometry" />
        </mxCell>
        <mxCell id="H9uLp7tHIZIzgpHieKHO-116" value="Click Update work Item button" style="rounded=1;whiteSpace=wrap;html=1;shadow=0;labelBackgroundColor=none;strokeWidth=1;fontFamily=Verdana;fontSize=8;align=center;fontStyle=1;fillColor=#b0e3e6;strokeColor=#0e8088;" parent="H9uLp7tHIZIzgpHieKHO-78" vertex="1">
          <mxGeometry x="640" y="148.94000000000005" width="90" height="52.13" as="geometry" />
        </mxCell>
        <mxCell id="H9uLp7tHIZIzgpHieKHO-1" value="End Process" style="swimlane;html=1;startSize=20;horizontal=0;fillColor=#f8cecc;strokeColor=#b85450;" parent="2b4e8129b02d487f-1" vertex="1">
          <mxGeometry y="1340" width="1140" height="120" as="geometry" />
        </mxCell>
        <mxCell id="H9uLp7tHIZIzgpHieKHO-2" style="edgeStyle=orthogonalEdgeStyle;rounded=0;orthogonalLoop=1;jettySize=auto;html=1;exitX=1;exitY=0.5;exitDx=0;exitDy=0;entryX=0;entryY=0.5;entryDx=0;entryDy=0;" parent="H9uLp7tHIZIzgpHieKHO-1" source="H9uLp7tHIZIzgpHieKHO-3" target="H9uLp7tHIZIzgpHieKHO-4" edge="1">
          <mxGeometry relative="1" as="geometry" />
        </mxCell>
        <mxCell id="H9uLp7tHIZIzgpHieKHO-3" value="Update Work Item" style="ellipse;whiteSpace=wrap;html=1;rounded=0;shadow=0;labelBackgroundColor=none;strokeWidth=1;fontFamily=Verdana;fontSize=8;align=center;fillColor=#b0e3e6;strokeColor=#0e8088;fontStyle=1" parent="H9uLp7tHIZIzgpHieKHO-1" vertex="1">
          <mxGeometry x="40" y="30" width="60" height="60" as="geometry" />
        </mxCell>
        <mxCell id="H9uLp7tHIZIzgpHieKHO-4" value="Close All&amp;nbsp; Apps" style="rounded=1;whiteSpace=wrap;html=1;shadow=0;labelBackgroundColor=none;strokeWidth=1;fontFamily=Verdana;fontSize=8;align=center;fillColor=#f8cecc;strokeColor=#b85450;fontStyle=1" parent="H9uLp7tHIZIzgpHieKHO-1" vertex="1">
          <mxGeometry x="150" y="31.5" width="175" height="58.5" as="geometry" />
        </mxCell>
        <mxCell id="lynWyJ27UmlPL52xSpIG-44" value="" style="rounded=0;whiteSpace=wrap;html=1;" parent="1" vertex="1">
          <mxGeometry x="180" y="-30" width="620" height="80" as="geometry" />
        </mxCell>
        <mxCell id="lynWyJ27UmlPL52xSpIG-45" value="Color Map" style="rounded=0;whiteSpace=wrap;html=1;fontStyle=1" parent="1" vertex="1">
          <mxGeometry x="180" y="-60" width="120" height="30" as="geometry" />
        </mxCell>
        <mxCell id="lynWyJ27UmlPL52xSpIG-46" value="ACME1 + ACME 3" style="rounded=1;whiteSpace=wrap;html=1;fillColor=#dae8fc;strokeColor=#6c8ebf;fontStyle=1" parent="1" vertex="1">
          <mxGeometry x="190" y="-3" width="100" height="35" as="geometry" />
        </mxCell>
        <mxCell id="lynWyJ27UmlPL52xSpIG-47" value="ACME 1" style="rounded=1;whiteSpace=wrap;html=1;fillColor=#d5e8d4;strokeColor=#82b366;fontStyle=1" parent="1" vertex="1">
          <mxGeometry x="300" y="-3" width="60" height="35" as="geometry" />
        </mxCell>
        <mxCell id="lynWyJ27UmlPL52xSpIG-48" value="ACME 1" style="rounded=1;whiteSpace=wrap;html=1;fillColor=#ffe6cc;strokeColor=#d79b00;fontStyle=1" parent="1" vertex="1">
          <mxGeometry x="370" y="-3" width="50" height="35" as="geometry" />
        </mxCell>
        <mxCell id="H9uLp7tHIZIzgpHieKHO-129" value="ACME 3" style="rounded=1;whiteSpace=wrap;html=1;fillColor=#b1ddf0;strokeColor=#10739e;fontStyle=1" parent="1" vertex="1">
          <mxGeometry x="430" y="-3" width="50" height="35" as="geometry" />
        </mxCell>
        <mxCell id="H9uLp7tHIZIzgpHieKHO-130" value="ACME 3" style="rounded=1;whiteSpace=wrap;html=1;fillColor=#bac8d3;strokeColor=#23445d;fontStyle=1" parent="1" vertex="1">
          <mxGeometry x="490" y="-3" width="50" height="35" as="geometry" />
        </mxCell>
        <mxCell id="H9uLp7tHIZIzgpHieKHO-131" value="ACME 3" style="rounded=1;whiteSpace=wrap;html=1;fontStyle=1" parent="1" vertex="1">
          <mxGeometry x="550" y="-3" width="50" height="35" as="geometry" />
        </mxCell>
        <mxCell id="H9uLp7tHIZIzgpHieKHO-132" value="ACME 1" style="rounded=1;whiteSpace=wrap;html=1;fontStyle=1;fillColor=#b0e3e6;strokeColor=#0e8088;" parent="1" vertex="1">
          <mxGeometry x="610" y="-3" width="50" height="35" as="geometry" />
        </mxCell>
        <mxCell id="H9uLp7tHIZIzgpHieKHO-134" value="End" style="rounded=1;whiteSpace=wrap;html=1;fontStyle=1;fillColor=#ffcccc;strokeColor=#36393d;" parent="1" vertex="1">
          <mxGeometry x="670" y="-3" width="50" height="35" as="geometry" />
        </mxCell>
      </root>
    </mxGraphModel>
  </diagram>
</mxfile>
